<?xml version="1.0" encoding="UTF-8"?>
<svg id="_Слой_1" data-name="Слой 1" xmlns="http://www.w3.org/2000/svg" viewBox="0 0 1000 569.68">
  <defs>
    <style>
      .cls-1 {
        fill: #2875c8;
      }

      .cls-1, .cls-2, .cls-3, .cls-4 {
        stroke-width: 0px;
      }

      .cls-2 {
        fill: #36bac1;
      }

      .cls-3 {
        fill:rgb(255, 255, 255);
      }

      .cls-4 {
        fill: #42c890;
      }
    </style>
  </defs>
  <rect class="cls-4" x="162.31" y="62.43" width="17.15" height="445.95"/>
  <rect class="cls-2" x="104.98" y="229.29" width="17.15" height="279.1"/>
  <rect class="cls-1" x="47.66" y="388.32" width="17.15" height="120.06"/>
  <g>
    <path class="cls-3" d="M277.57,62.96v118.23h18.47V62.96h-18.47Z"/>
    <path class="cls-3" d="M421.59,62.96v63.58c.12,3.54.25,7.33.42,11.36.17,4.01.32,7.8.42,11.34.12,3.54.25,6.45.35,8.77h-.5l-61.61-95.05h-22.26v118.23h16.77v-62.93c0-4.09-.07-8.05-.25-11.91-.17-3.86-.35-7.58-.52-11.12-.17-3.51-.37-6.73-.6-9.59h.7l61.76,95.55h22.43V62.96h-17.12Z"/>
    <path class="cls-3" d="M546.18,62.96l-26.19,74.02c-.9,2.64-1.84,5.53-2.82,8.6-.97,3.12-1.82,6.13-2.57,9.12-.75,2.99-1.4,5.81-1.97,8.45-.45-2.64-1.07-5.46-1.87-8.45-.8-2.99-1.67-5.98-2.57-9.02-.92-3.04-1.89-5.88-2.92-8.52l-26.17-74.19h-19.02l42.97,118.23h19.16l43.12-118.23h-19.17Z"/>
    <path class="cls-3" d="M655.43,78.19v-15.23h-68.78v118.23h68.78v-15.4h-50.29v-38.75h47.23v-15.05h-47.23v-33.79h50.29Z"/>
    <path class="cls-3" d="M752.38,133.74c-2.52-4.14-6.21-7.7-11.04-10.67-4.86-2.99-10.69-5.76-17.54-8.3-6.16-2.42-11.12-4.66-14.88-6.7-3.76-2.04-6.5-4.26-8.22-6.7-1.69-2.42-2.57-5.46-2.57-9.1,0-3.09.77-5.81,2.32-8.12,1.55-2.32,3.84-4.14,6.93-5.46,3.07-1.32,6.9-1.99,11.46-1.99,5.23,0,10.27.62,15.05,1.82,4.79,1.22,9.52,2.77,14.21,4.64l5.81-14.73c-5.13-2.22-10.52-3.94-16.15-5.21-5.66-1.27-11.79-1.92-18.39-1.92-7.88,0-14.78,1.25-20.71,3.74-5.93,2.47-10.59,6.03-13.96,10.67-3.36,4.64-5.03,10.22-5.03,16.72,0,4.86.72,9.12,2.22,12.76,1.47,3.64,3.61,6.85,6.4,9.6,2.82,2.77,6.06,5.18,9.77,7.23,3.69,2.04,7.83,3.89,12.39,5.53,6.63,2.44,11.91,4.74,15.85,6.88,3.91,2.14,6.83,4.46,8.72,6.95,1.87,2.49,2.82,5.56,2.82,9.2,0,3.41-.92,6.41-2.74,8.95-1.82,2.54-4.56,4.51-8.2,5.96-3.66,1.45-8.22,2.14-13.71,2.14-6.38,0-12.66-.8-18.82-2.39-6.16-1.6-11.51-3.39-16.07-5.38v16.9c2.74,1.32,5.86,2.42,9.4,3.31,3.54.87,7.38,1.57,11.46,2.07,4.11.5,8.4.75,12.83.75,9.12,0,17-1.37,23.63-4.06,6.6-2.72,11.69-6.55,15.23-11.51,3.54-4.96,5.31-10.99,5.31-18.04,0-6.18-1.27-11.34-3.76-15.5Z"/>
    <path class="cls-3" d="M773.76,62.96v15.4h36.61v102.83h18.47v-102.83h36.64v-15.4h-91.71Z"/>
  </g>
  <g>
    <path class="cls-3" d="M258.75,229.31v15.4h36.61v102.83h18.47v-102.83h36.64v-15.4h-91.71Z"/>
    <path class="cls-3" d="M383.39,229.31v118.23h18.47v-118.23h-18.47Z"/>
    <path class="cls-3" d="M545.25,229.31l-36.11,94.88h-.7l-35.07-94.88h-26.34v118.23h16.77v-66.74c0-4.19-.07-8.45-.17-12.73-.12-4.31-.3-8.35-.52-12.09-.22-3.76-.4-6.75-.52-8.95h.7l36.96,100.51h15.9l38.01-100.36h.67c-.12,2.32-.25,5.31-.42,8.95-.17,3.64-.35,7.55-.52,11.69-.17,4.14-.25,8.12-.25,11.99v67.74h17.97v-118.23h-26.34Z"/>
    <path class="cls-3" d="M674.8,244.54v-15.23h-68.78v118.23h68.78v-15.4h-50.29v-38.75h47.23v-15.05h-47.23v-33.79h50.29Z"/>
  </g>
  <g>
    <path class="cls-3" d="M324.79,492.99c-8.67,0-15.85-1.82-21.56-5.48-5.71-3.64-9.99-8.85-12.83-15.65-2.87-6.78-4.29-14.8-4.29-24.08,0-7.08.9-13.43,2.67-19.07,1.77-5.63,4.34-10.42,7.7-14.4,3.36-3.96,7.43-6.98,12.24-9.02,4.78-2.04,10.19-3.07,16.25-3.07,5.13,0,9.99.7,14.63,2.07,4.61,1.4,8.92,2.97,12.91,4.74l6.85-14.9c-4.78-2.32-10.17-4.11-16.1-5.38-5.93-1.27-11.96-1.92-18.12-1.92-9.47,0-17.84,1.47-25.07,4.39-7.25,2.94-13.33,7.1-18.22,12.51-4.91,5.41-8.65,11.84-11.21,19.29-2.57,7.45-3.86,15.65-3.86,24.6,0,12.26,2.07,22.95,6.18,32.12,4.09,9.17,10.29,16.22,18.57,21.21,8.25,4.96,18.62,7.45,31.05,7.45,6.6,0,12.41-.42,17.45-1.25,5.01-.82,9.92-2.12,14.7-3.89v-15.4c-5.01,1.55-9.94,2.79-14.8,3.71-4.84.95-9.89,1.42-15.13,1.42Z"/>
    <path class="cls-3" d="M438.91,387.99h-19.17l-46.38,118.73h19.16l13.01-34.12h47.23l12.98,34.12h19.34l-46.18-118.73ZM411,457.05l12.34-33.3c.45-1.32,1.02-3.07,1.69-5.21.7-2.17,1.4-4.54,2.14-7.13.75-2.59,1.4-4.98,1.97-7.2.45,1.64,1.1,3.79,1.89,6.38.8,2.59,1.62,5.13,2.47,7.6.87,2.49,1.47,4.34,1.79,5.56l12.34,33.3h-36.64Z"/>
    <path class="cls-3" d="M577.48,397.84c-7.3-6.23-18.94-9.35-34.89-9.35h-34.24v118.23h18.49v-44.88h13.18c9,0,16.62-1,22.83-3.04,6.23-2.04,11.21-4.86,14.98-8.45,3.76-3.59,6.48-7.65,8.12-12.19,1.64-4.51,2.49-9.27,2.49-14.23,0-11.17-3.66-19.86-10.97-26.09ZM565.94,437.41c-2.34,3.26-5.86,5.63-10.52,7.13-4.69,1.5-10.52,2.24-17.47,2.24h-11.12v-43.24h14.38c9.79,0,16.95,1.74,21.46,5.23,4.51,3.46,6.78,8.75,6.78,15.8,0,5.31-1.17,9.59-3.51,12.83Z"/>
    <path class="cls-3" d="M616.19,388.49v118.23h18.47v-118.23h-18.47Z"/>
    <path class="cls-3" d="M661.06,388.49v15.4h36.61v102.83h18.49v-102.83h36.61v-15.4h-91.71Z"/>
    <path class="cls-3" d="M813.6,387.99h-19.16l-46.35,118.73h19.17l12.98-34.12h47.23l13.01,34.12h19.34l-46.21-118.73ZM785.72,457.05l12.34-33.3c.45-1.32,1.02-3.07,1.69-5.21.7-2.17,1.4-4.54,2.14-7.13.75-2.59,1.4-4.98,1.97-7.2.45,1.64,1.07,3.79,1.87,6.38.8,2.59,1.64,5.13,2.49,7.6.85,2.49,1.45,4.34,1.79,5.56l12.31,33.3h-36.61Z"/>
    <path class="cls-3" d="M900.16,491.32v-102.83h-18.49v118.23h70.68v-15.4h-52.19Z"/>
  </g>
</svg>